<mxfile host="app.diagrams.net" agent="Mozilla/5.0 (Windows NT 10.0; Win64; x64) AppleWebKit/537.36 (KHTML, like Gecko) Chrome/132.0.0.0 Safari/537.36" version="26.0.5">
  <diagram name="Страница — 1" id="8yhxPZ9sAqlRvRlLuSa6">
    <mxGraphModel dx="521" dy="1103" grid="1" gridSize="10" guides="1" tooltips="1" connect="1" arrows="1" fold="1" page="1" pageScale="1" pageWidth="827" pageHeight="1169" math="0" shadow="0">
      <root>
        <object label="" id="0">
          <mxCell />
        </object>
        <mxCell id="1" parent="0" />
        <mxCell id="JARcoFttrVsRiCPBKBgf-25" value="" style="edgeStyle=orthogonalEdgeStyle;rounded=0;orthogonalLoop=1;jettySize=auto;html=1;entryX=0.4;entryY=0.538;entryDx=0;entryDy=0;entryPerimeter=0;" edge="1" parent="1">
          <mxGeometry relative="1" as="geometry">
            <mxPoint x="128.5" y="49.26" as="sourcePoint" />
            <mxPoint x="178.5" y="49.26" as="targetPoint" />
            <Array as="points">
              <mxPoint x="148.5" y="49.26" />
              <mxPoint x="148.5" y="49.26" />
            </Array>
          </mxGeometry>
        </mxCell>
        <mxCell id="JARcoFttrVsRiCPBKBgf-23" style="edgeStyle=orthogonalEdgeStyle;rounded=0;orthogonalLoop=1;jettySize=auto;html=1;" edge="1" parent="1" source="_m4tts8Bsvn_CeZphiYl-13">
          <mxGeometry relative="1" as="geometry">
            <mxPoint x="380" y="260" as="targetPoint" />
            <Array as="points">
              <mxPoint x="380" y="50" />
              <mxPoint x="380" y="260" />
            </Array>
            <mxPoint x="134.11" y="74.51" as="sourcePoint" />
          </mxGeometry>
        </mxCell>
        <mxCell id="JARcoFttrVsRiCPBKBgf-21" style="edgeStyle=orthogonalEdgeStyle;rounded=0;orthogonalLoop=1;jettySize=auto;html=1;entryX=0.99;entryY=0.059;entryDx=0;entryDy=0;entryPerimeter=0;" edge="1" parent="1">
          <mxGeometry relative="1" as="geometry">
            <mxPoint x="379.996" y="259.9962" as="targetPoint" />
            <Array as="points">
              <mxPoint x="481" y="50" />
              <mxPoint x="380" y="50" />
            </Array>
            <mxPoint x="480.89" y="44.58" as="sourcePoint" />
          </mxGeometry>
        </mxCell>
        <mxCell id="JARcoFttrVsRiCPBKBgf-22" style="edgeStyle=orthogonalEdgeStyle;rounded=0;orthogonalLoop=1;jettySize=auto;html=1;" edge="1" parent="1">
          <mxGeometry relative="1" as="geometry">
            <mxPoint x="380" y="260" as="targetPoint" />
            <Array as="points">
              <mxPoint x="480" y="170" />
              <mxPoint x="380" y="170" />
            </Array>
            <mxPoint x="480" y="49.99999999999999" as="sourcePoint" />
          </mxGeometry>
        </mxCell>
        <mxCell id="JARcoFttrVsRiCPBKBgf-19" style="edgeStyle=orthogonalEdgeStyle;rounded=0;orthogonalLoop=1;jettySize=auto;html=1;" edge="1" parent="1">
          <mxGeometry relative="1" as="geometry">
            <mxPoint x="380" y="260" as="targetPoint" />
            <Array as="points">
              <mxPoint x="410" y="170" />
              <mxPoint x="380" y="170" />
            </Array>
            <mxPoint x="410" y="49.99999999999999" as="sourcePoint" />
          </mxGeometry>
        </mxCell>
        <mxCell id="_m4tts8Bsvn_CeZphiYl-5" style="edgeStyle=orthogonalEdgeStyle;rounded=0;orthogonalLoop=1;jettySize=auto;html=1;" parent="1" source="_m4tts8Bsvn_CeZphiYl-1" target="_m4tts8Bsvn_CeZphiYl-15" edge="1">
          <mxGeometry relative="1" as="geometry">
            <mxPoint x="344.0999999999999" y="195.5" as="targetPoint" />
            <Array as="points">
              <mxPoint x="125" y="170" />
              <mxPoint x="381" y="170" />
            </Array>
          </mxGeometry>
        </mxCell>
        <mxCell id="_m4tts8Bsvn_CeZphiYl-1" value="S1" style="image;points=[];aspect=fixed;html=1;align=center;shadow=0;dashed=0;image=img/lib/allied_telesis/computer_and_terminals/Server_Desktop.svg;" parent="1" vertex="1">
          <mxGeometry x="100" y="15.31" width="46.7" height="59.2" as="geometry" />
        </mxCell>
        <mxCell id="_m4tts8Bsvn_CeZphiYl-11" style="edgeStyle=orthogonalEdgeStyle;rounded=0;orthogonalLoop=1;jettySize=auto;html=1;" parent="1" target="_m4tts8Bsvn_CeZphiYl-15" edge="1">
          <mxGeometry relative="1" as="geometry">
            <mxPoint x="381.29999999999995" y="104" as="sourcePoint" />
            <mxPoint x="279.4000000000001" y="305.9" as="targetPoint" />
            <Array as="points" />
          </mxGeometry>
        </mxCell>
        <mxCell id="_m4tts8Bsvn_CeZphiYl-16" style="edgeStyle=orthogonalEdgeStyle;rounded=0;orthogonalLoop=1;jettySize=auto;html=1;" parent="1" source="5nehbM33_N8TDF6x8ujO-1" target="_m4tts8Bsvn_CeZphiYl-15" edge="1">
          <mxGeometry relative="1" as="geometry">
            <Array as="points">
              <mxPoint x="381" y="50" />
            </Array>
          </mxGeometry>
        </mxCell>
        <mxCell id="JARcoFttrVsRiCPBKBgf-15" value="" style="edgeStyle=orthogonalEdgeStyle;rounded=0;orthogonalLoop=1;jettySize=auto;html=1;entryX=0.4;entryY=0.538;entryDx=0;entryDy=0;entryPerimeter=0;" edge="1" parent="1" source="_m4tts8Bsvn_CeZphiYl-2" target="5nehbM33_N8TDF6x8ujO-1">
          <mxGeometry relative="1" as="geometry">
            <Array as="points">
              <mxPoint x="240" y="50" />
              <mxPoint x="240" y="50" />
            </Array>
          </mxGeometry>
        </mxCell>
        <mxCell id="_m4tts8Bsvn_CeZphiYl-2" value="S2" style="image;points=[];aspect=fixed;html=1;align=center;shadow=0;dashed=0;image=img/lib/allied_telesis/computer_and_terminals/Server_Desktop.svg;" parent="1" vertex="1">
          <mxGeometry x="170" y="15.3" width="50.49" height="64" as="geometry" />
        </mxCell>
        <mxCell id="_m4tts8Bsvn_CeZphiYl-3" value="S6" style="image;points=[];aspect=fixed;html=1;align=center;shadow=0;dashed=0;image=img/lib/allied_telesis/computer_and_terminals/Server_Desktop.svg;" parent="1" vertex="1">
          <mxGeometry x="460" y="20" width="46.78" height="59.3" as="geometry" />
        </mxCell>
        <mxCell id="_m4tts8Bsvn_CeZphiYl-13" value="" style="image;points=[];aspect=fixed;html=1;align=center;shadow=0;dashed=0;image=img/lib/allied_telesis/wireless/Access_Point_Indoor.svg;" parent="1" vertex="1">
          <mxGeometry x="791" y="20" width="36.6" height="54.6" as="geometry" />
        </mxCell>
        <mxCell id="_m4tts8Bsvn_CeZphiYl-20" style="edgeStyle=orthogonalEdgeStyle;rounded=0;orthogonalLoop=1;jettySize=auto;html=1;" parent="1" source="_m4tts8Bsvn_CeZphiYl-15" target="_m4tts8Bsvn_CeZphiYl-18" edge="1">
          <mxGeometry relative="1" as="geometry">
            <mxPoint x="380" y="290" as="targetPoint" />
          </mxGeometry>
        </mxCell>
        <mxCell id="_m4tts8Bsvn_CeZphiYl-22" style="edgeStyle=orthogonalEdgeStyle;rounded=0;orthogonalLoop=1;jettySize=auto;html=1;" parent="1" source="_m4tts8Bsvn_CeZphiYl-15" target="_m4tts8Bsvn_CeZphiYl-17" edge="1">
          <mxGeometry relative="1" as="geometry" />
        </mxCell>
        <mxCell id="_m4tts8Bsvn_CeZphiYl-15" value="Комутатор" style="image;points=[];aspect=fixed;html=1;align=center;shadow=0;dashed=0;image=img/lib/allied_telesis/switch/Modular_Switch_SBx8112.svg;" parent="1" vertex="1">
          <mxGeometry x="336.6" y="260" width="89.4" height="91.8" as="geometry" />
        </mxCell>
        <mxCell id="_m4tts8Bsvn_CeZphiYl-17" value="Отдел 1&lt;br&gt;(4 шт)" style="image;points=[];aspect=fixed;html=1;align=center;shadow=0;dashed=0;image=img/lib/allied_telesis/switch/Switch_24_port_L2.svg;" parent="1" vertex="1">
          <mxGeometry x="104.1" y="410" width="74.4" height="51" as="geometry" />
        </mxCell>
        <mxCell id="_m4tts8Bsvn_CeZphiYl-18" value="Отдел 2&lt;br&gt;(4 шт)" style="image;points=[];aspect=fixed;html=1;align=center;shadow=0;dashed=0;image=img/lib/allied_telesis/switch/Switch_24_port_L2.svg;" parent="1" vertex="1">
          <mxGeometry x="344.1" y="410" width="74.4" height="51" as="geometry" />
        </mxCell>
        <mxCell id="OwDQ4F999s0GaOjFifqz-12" value="" style="edgeStyle=orthogonalEdgeStyle;rounded=0;orthogonalLoop=1;jettySize=auto;html=1;" parent="1" source="_m4tts8Bsvn_CeZphiYl-19" target="_m4tts8Bsvn_CeZphiYl-46" edge="1">
          <mxGeometry relative="1" as="geometry">
            <Array as="points">
              <mxPoint x="652" y="810" />
            </Array>
          </mxGeometry>
        </mxCell>
        <mxCell id="_m4tts8Bsvn_CeZphiYl-19" value="Отдел 3&lt;br&gt;(6 шт)" style="image;points=[];aspect=fixed;html=1;align=center;shadow=0;dashed=0;image=img/lib/allied_telesis/switch/Switch_24_port_L2.svg;" parent="1" vertex="1">
          <mxGeometry x="614.4" y="410" width="74.4" height="51" as="geometry" />
        </mxCell>
        <mxCell id="_m4tts8Bsvn_CeZphiYl-24" value="H1-1....H1-8" style="image;points=[];aspect=fixed;html=1;align=center;shadow=0;dashed=0;image=img/lib/allied_telesis/computer_and_terminals/Personal_Computer.svg;" parent="1" vertex="1">
          <mxGeometry x="20" y="489" width="45.6" height="61.800000000000004" as="geometry" />
        </mxCell>
        <mxCell id="_m4tts8Bsvn_CeZphiYl-28" style="edgeStyle=orthogonalEdgeStyle;rounded=0;orthogonalLoop=1;jettySize=auto;html=1;" parent="1" source="_m4tts8Bsvn_CeZphiYl-25" edge="1">
          <mxGeometry relative="1" as="geometry">
            <mxPoint x="140" y="460" as="targetPoint" />
            <Array as="points">
              <mxPoint x="140" y="723" />
            </Array>
          </mxGeometry>
        </mxCell>
        <mxCell id="_m4tts8Bsvn_CeZphiYl-25" value="H2-1....H2-8" style="image;points=[];aspect=fixed;html=1;align=center;shadow=0;dashed=0;image=img/lib/allied_telesis/computer_and_terminals/Personal_Computer.svg;" parent="1" vertex="1">
          <mxGeometry x="20" y="692" width="45.6" height="61.800000000000004" as="geometry" />
        </mxCell>
        <mxCell id="_m4tts8Bsvn_CeZphiYl-29" style="edgeStyle=orthogonalEdgeStyle;rounded=0;orthogonalLoop=1;jettySize=auto;html=1;" parent="1" source="_m4tts8Bsvn_CeZphiYl-26" edge="1">
          <mxGeometry relative="1" as="geometry">
            <mxPoint x="140" y="460" as="targetPoint" />
            <Array as="points">
              <mxPoint x="140" y="618" />
            </Array>
          </mxGeometry>
        </mxCell>
        <mxCell id="_m4tts8Bsvn_CeZphiYl-26" value="H3-1....H3-8" style="image;points=[];aspect=fixed;html=1;align=center;shadow=0;dashed=0;image=img/lib/allied_telesis/computer_and_terminals/Personal_Computer.svg;" parent="1" vertex="1">
          <mxGeometry x="20" y="587.2" width="45.6" height="61.800000000000004" as="geometry" />
        </mxCell>
        <mxCell id="_m4tts8Bsvn_CeZphiYl-27" style="edgeStyle=orthogonalEdgeStyle;rounded=0;orthogonalLoop=1;jettySize=auto;html=1;entryX=0.542;entryY=1.008;entryDx=0;entryDy=0;entryPerimeter=0;" parent="1" source="_m4tts8Bsvn_CeZphiYl-24" edge="1">
          <mxGeometry relative="1" as="geometry">
            <mxPoint x="140.3248000000001" y="460.4079999999999" as="targetPoint" />
            <Array as="points">
              <mxPoint x="141" y="520" />
              <mxPoint x="141" y="470" />
            </Array>
          </mxGeometry>
        </mxCell>
        <mxCell id="_m4tts8Bsvn_CeZphiYl-32" value="H5-1....H5-8" style="image;points=[];aspect=fixed;html=1;align=center;shadow=0;dashed=0;image=img/lib/allied_telesis/computer_and_terminals/Personal_Computer.svg;" parent="1" vertex="1">
          <mxGeometry x="270" y="489" width="45.6" height="61.800000000000004" as="geometry" />
        </mxCell>
        <mxCell id="_m4tts8Bsvn_CeZphiYl-39" style="edgeStyle=orthogonalEdgeStyle;rounded=0;orthogonalLoop=1;jettySize=auto;html=1;" parent="1" source="_m4tts8Bsvn_CeZphiYl-33" target="_m4tts8Bsvn_CeZphiYl-18" edge="1">
          <mxGeometry relative="1" as="geometry" />
        </mxCell>
        <mxCell id="_m4tts8Bsvn_CeZphiYl-33" value="H7-1....H7-8" style="image;points=[];aspect=fixed;html=1;align=center;shadow=0;dashed=0;image=img/lib/allied_telesis/computer_and_terminals/Personal_Computer.svg;" parent="1" vertex="1">
          <mxGeometry x="270" y="692" width="45.6" height="61.800000000000004" as="geometry" />
        </mxCell>
        <mxCell id="_m4tts8Bsvn_CeZphiYl-37" style="edgeStyle=orthogonalEdgeStyle;rounded=0;orthogonalLoop=1;jettySize=auto;html=1;" parent="1" source="_m4tts8Bsvn_CeZphiYl-34" target="_m4tts8Bsvn_CeZphiYl-18" edge="1">
          <mxGeometry relative="1" as="geometry" />
        </mxCell>
        <mxCell id="_m4tts8Bsvn_CeZphiYl-34" value="H8-1....H8-8" style="image;points=[];aspect=fixed;html=1;align=center;shadow=0;dashed=0;image=img/lib/allied_telesis/computer_and_terminals/Personal_Computer.svg;" parent="1" vertex="1">
          <mxGeometry x="270" y="779" width="45.6" height="61.800000000000004" as="geometry" />
        </mxCell>
        <mxCell id="_m4tts8Bsvn_CeZphiYl-36" value="H6-1....H6-8" style="image;points=[];aspect=fixed;html=1;align=center;shadow=0;dashed=0;image=img/lib/allied_telesis/computer_and_terminals/Personal_Computer.svg;" parent="1" vertex="1">
          <mxGeometry x="270" y="587.2" width="45.6" height="61.800000000000004" as="geometry" />
        </mxCell>
        <mxCell id="_m4tts8Bsvn_CeZphiYl-40" style="edgeStyle=orthogonalEdgeStyle;rounded=0;orthogonalLoop=1;jettySize=auto;html=1;entryX=0.509;entryY=1.043;entryDx=0;entryDy=0;entryPerimeter=0;" parent="1" source="_m4tts8Bsvn_CeZphiYl-36" target="_m4tts8Bsvn_CeZphiYl-18" edge="1">
          <mxGeometry relative="1" as="geometry" />
        </mxCell>
        <mxCell id="_m4tts8Bsvn_CeZphiYl-41" style="edgeStyle=orthogonalEdgeStyle;rounded=0;orthogonalLoop=1;jettySize=auto;html=1;entryX=0.499;entryY=0.996;entryDx=0;entryDy=0;entryPerimeter=0;" parent="1" source="_m4tts8Bsvn_CeZphiYl-32" target="_m4tts8Bsvn_CeZphiYl-18" edge="1">
          <mxGeometry relative="1" as="geometry" />
        </mxCell>
        <mxCell id="_m4tts8Bsvn_CeZphiYl-49" style="edgeStyle=orthogonalEdgeStyle;rounded=0;orthogonalLoop=1;jettySize=auto;html=1;" parent="1" source="_m4tts8Bsvn_CeZphiYl-42" target="_m4tts8Bsvn_CeZphiYl-19" edge="1">
          <mxGeometry relative="1" as="geometry">
            <Array as="points">
              <mxPoint x="652" y="723" />
              <mxPoint x="652" y="473" />
              <mxPoint x="650" y="473" />
              <mxPoint x="650" y="470" />
              <mxPoint x="652" y="470" />
            </Array>
          </mxGeometry>
        </mxCell>
        <mxCell id="_m4tts8Bsvn_CeZphiYl-48" style="edgeStyle=orthogonalEdgeStyle;rounded=0;orthogonalLoop=1;jettySize=auto;html=1;" parent="1" source="_m4tts8Bsvn_CeZphiYl-43" target="_m4tts8Bsvn_CeZphiYl-19" edge="1">
          <mxGeometry relative="1" as="geometry" />
        </mxCell>
        <mxCell id="_m4tts8Bsvn_CeZphiYl-43" value="H10-1....H10-8" style="image;points=[];aspect=fixed;html=1;align=center;shadow=0;dashed=0;image=img/lib/allied_telesis/computer_and_terminals/Personal_Computer.svg;" parent="1" vertex="1">
          <mxGeometry x="540" y="587.2" width="45.6" height="61.800000000000004" as="geometry" />
        </mxCell>
        <mxCell id="_m4tts8Bsvn_CeZphiYl-52" style="edgeStyle=orthogonalEdgeStyle;rounded=0;orthogonalLoop=1;jettySize=auto;html=1;" parent="1" source="_m4tts8Bsvn_CeZphiYl-44" target="_m4tts8Bsvn_CeZphiYl-19" edge="1">
          <mxGeometry relative="1" as="geometry" />
        </mxCell>
        <mxCell id="_m4tts8Bsvn_CeZphiYl-44" value="H14-1....H14-8" style="image;points=[];aspect=fixed;html=1;align=center;shadow=0;dashed=0;image=img/lib/allied_telesis/computer_and_terminals/Personal_Computer.svg;" parent="1" vertex="1">
          <mxGeometry x="540" y="960" width="45.6" height="61.800000000000004" as="geometry" />
        </mxCell>
        <mxCell id="_m4tts8Bsvn_CeZphiYl-51" style="edgeStyle=orthogonalEdgeStyle;rounded=0;orthogonalLoop=1;jettySize=auto;html=1;" parent="1" source="_m4tts8Bsvn_CeZphiYl-45" target="_m4tts8Bsvn_CeZphiYl-19" edge="1">
          <mxGeometry relative="1" as="geometry" />
        </mxCell>
        <mxCell id="_m4tts8Bsvn_CeZphiYl-45" value="H13-1....H13-8" style="image;points=[];aspect=fixed;html=1;align=center;shadow=0;dashed=0;image=img/lib/allied_telesis/computer_and_terminals/Personal_Computer.svg;" parent="1" vertex="1">
          <mxGeometry x="540" y="870" width="45.6" height="61.800000000000004" as="geometry" />
        </mxCell>
        <mxCell id="_m4tts8Bsvn_CeZphiYl-50" style="edgeStyle=orthogonalEdgeStyle;rounded=0;orthogonalLoop=1;jettySize=auto;html=1;" parent="1" source="_m4tts8Bsvn_CeZphiYl-42" target="_m4tts8Bsvn_CeZphiYl-19" edge="1">
          <mxGeometry relative="1" as="geometry" />
        </mxCell>
        <mxCell id="_m4tts8Bsvn_CeZphiYl-46" value="H12-1....H12-8" style="image;points=[];aspect=fixed;html=1;align=center;shadow=0;dashed=0;image=img/lib/allied_telesis/computer_and_terminals/Personal_Computer.svg;" parent="1" vertex="1">
          <mxGeometry x="540" y="779" width="45.6" height="61.800000000000004" as="geometry" />
        </mxCell>
        <mxCell id="5nehbM33_N8TDF6x8ujO-4" value="" style="edgeStyle=orthogonalEdgeStyle;rounded=0;orthogonalLoop=1;jettySize=auto;html=1;" parent="1" source="5nehbM33_N8TDF6x8ujO-1" target="_m4tts8Bsvn_CeZphiYl-15" edge="1">
          <mxGeometry relative="1" as="geometry">
            <Array as="points">
              <mxPoint x="381" y="50" />
            </Array>
          </mxGeometry>
        </mxCell>
        <mxCell id="OwDQ4F999s0GaOjFifqz-9" value="S5" style="image;points=[];aspect=fixed;html=1;align=center;shadow=0;dashed=0;image=img/lib/allied_telesis/computer_and_terminals/Server_Desktop.svg;" parent="1" vertex="1">
          <mxGeometry x="390.11" y="20" width="46.78" height="59.3" as="geometry" />
        </mxCell>
        <mxCell id="5nehbM33_N8TDF6x8ujO-5" value="" style="edgeStyle=orthogonalEdgeStyle;rounded=0;orthogonalLoop=1;jettySize=auto;html=1;" parent="1" source="5nehbM33_N8TDF6x8ujO-1" target="_m4tts8Bsvn_CeZphiYl-15" edge="1">
          <mxGeometry relative="1" as="geometry">
            <Array as="points">
              <mxPoint x="380" y="50" />
            </Array>
          </mxGeometry>
        </mxCell>
        <mxCell id="5nehbM33_N8TDF6x8ujO-6" value="" style="edgeStyle=orthogonalEdgeStyle;rounded=0;orthogonalLoop=1;jettySize=auto;html=1;" parent="1" source="5nehbM33_N8TDF6x8ujO-1" target="_m4tts8Bsvn_CeZphiYl-15" edge="1">
          <mxGeometry relative="1" as="geometry">
            <Array as="points">
              <mxPoint x="380" y="50" />
            </Array>
          </mxGeometry>
        </mxCell>
        <mxCell id="5nehbM33_N8TDF6x8ujO-2" value="" style="edgeStyle=orthogonalEdgeStyle;rounded=0;orthogonalLoop=1;jettySize=auto;html=1;" parent="1" source="OwDQ4F999s0GaOjFifqz-7" target="_m4tts8Bsvn_CeZphiYl-15" edge="1">
          <mxGeometry relative="1" as="geometry">
            <Array as="points">
              <mxPoint x="343" y="170" />
              <mxPoint x="380" y="170" />
            </Array>
          </mxGeometry>
        </mxCell>
        <mxCell id="JARcoFttrVsRiCPBKBgf-4" value="" style="edgeStyle=orthogonalEdgeStyle;rounded=0;orthogonalLoop=1;jettySize=auto;html=1;" edge="1" parent="1" source="JARcoFttrVsRiCPBKBgf-3">
          <mxGeometry relative="1" as="geometry">
            <mxPoint x="141" y="460" as="targetPoint" />
            <Array as="points">
              <mxPoint x="141" y="810" />
            </Array>
          </mxGeometry>
        </mxCell>
        <mxCell id="JARcoFttrVsRiCPBKBgf-3" value="H4-1....H4-8" style="image;points=[];aspect=fixed;html=1;align=center;shadow=0;dashed=0;image=img/lib/allied_telesis/computer_and_terminals/Personal_Computer.svg;" vertex="1" parent="1">
          <mxGeometry x="20" y="779" width="45.6" height="61.800000000000004" as="geometry" />
        </mxCell>
        <mxCell id="_m4tts8Bsvn_CeZphiYl-42" value="H11-1....H11-8" style="image;points=[];aspect=fixed;html=1;align=center;shadow=0;dashed=0;image=img/lib/allied_telesis/computer_and_terminals/Personal_Computer.svg;" parent="1" vertex="1">
          <mxGeometry x="540" y="692" width="45.6" height="61.800000000000004" as="geometry" />
        </mxCell>
        <mxCell id="JARcoFttrVsRiCPBKBgf-6" value="H9-1....H9-8" style="image;points=[];aspect=fixed;html=1;align=center;shadow=0;dashed=0;image=img/lib/allied_telesis/computer_and_terminals/Personal_Computer.svg;" vertex="1" parent="1">
          <mxGeometry x="540" y="489.00000000000006" width="45.6" height="61.800000000000004" as="geometry" />
        </mxCell>
        <mxCell id="JARcoFttrVsRiCPBKBgf-7" style="edgeStyle=orthogonalEdgeStyle;rounded=0;orthogonalLoop=1;jettySize=auto;html=1;entryX=0.513;entryY=0.015;entryDx=0;entryDy=0;entryPerimeter=0;" edge="1" parent="1" target="_m4tts8Bsvn_CeZphiYl-19">
          <mxGeometry relative="1" as="geometry">
            <mxPoint x="651" y="380" as="targetPoint" />
            <mxPoint x="430" y="306" as="sourcePoint" />
          </mxGeometry>
        </mxCell>
        <mxCell id="5nehbM33_N8TDF6x8ujO-1" value="S3" style="image;points=[];aspect=fixed;html=1;align=center;shadow=0;dashed=0;image=img/lib/allied_telesis/computer_and_terminals/Server_Desktop.svg;" parent="1" vertex="1">
          <mxGeometry x="250.00000000000003" y="15.919999999999998" width="50" height="63.38" as="geometry" />
        </mxCell>
        <mxCell id="OwDQ4F999s0GaOjFifqz-7" value="S4" style="image;points=[];aspect=fixed;html=1;align=center;shadow=0;dashed=0;image=img/lib/allied_telesis/computer_and_terminals/Server_Desktop.svg;" parent="1" vertex="1">
          <mxGeometry x="320" y="20" width="46.78" height="59.3" as="geometry" />
        </mxCell>
        <mxCell id="JARcoFttrVsRiCPBKBgf-12" style="edgeStyle=orthogonalEdgeStyle;rounded=0;orthogonalLoop=1;jettySize=auto;html=1;" edge="1" parent="1">
          <mxGeometry relative="1" as="geometry">
            <mxPoint x="380" y="260" as="targetPoint" />
            <Array as="points">
              <mxPoint x="190" y="170" />
              <mxPoint x="380" y="170" />
            </Array>
            <mxPoint x="190" y="68.6" as="sourcePoint" />
          </mxGeometry>
        </mxCell>
        <mxCell id="JARcoFttrVsRiCPBKBgf-16" style="edgeStyle=orthogonalEdgeStyle;rounded=0;orthogonalLoop=1;jettySize=auto;html=1;" edge="1" parent="1">
          <mxGeometry relative="1" as="geometry">
            <mxPoint x="380" y="260" as="targetPoint" />
            <Array as="points">
              <mxPoint x="270" y="170" />
              <mxPoint x="380" y="170" />
            </Array>
            <mxPoint x="270" y="68.50999999999999" as="sourcePoint" />
          </mxGeometry>
        </mxCell>
        <mxCell id="JARcoFttrVsRiCPBKBgf-27" style="edgeStyle=orthogonalEdgeStyle;rounded=0;orthogonalLoop=1;jettySize=auto;html=1;" edge="1" parent="1">
          <mxGeometry relative="1" as="geometry">
            <mxPoint x="585.6" y="528" as="sourcePoint" />
            <mxPoint x="652" y="460" as="targetPoint" />
          </mxGeometry>
        </mxCell>
      </root>
    </mxGraphModel>
  </diagram>
</mxfile>
